<?xml version="1.0" encoding="utf-8"?>
<svg version="1.1" xmlns:xlink="http://www.w3.org/1999/xlink" width="370px" height="191px" xmlns="http://www.w3.org/2000/svg">
  <g transform="matrix(1 0 0 1 -459 -260 )">
    <path d="M 460 270  A 9 9 0 0 1 469 261 L 819 261  A 9 9 0 0 1 828 270 L 828 441  A 9 9 0 0 1 819 450 L 469 450  A 9 9 0 0 1 460 441 L 460 270  Z " fill-rule="nonzero" fill="#ffffff" stroke="none" />
    <path d="M 459.5 270  A 9.5 9.5 0 0 1 469 260.5 L 819 260.5  A 9.5 9.5 0 0 1 828.5 270 L 828.5 441  A 9.5 9.5 0 0 1 819 450.5 L 469 450.5  A 9.5 9.5 0 0 1 459.5 441 L 459.5 270  Z " stroke-width="1" stroke="#797979" fill="none" stroke-opacity="0.207843137254902" />
  </g>
</svg>