<?xml version="1.0" encoding="utf-8"?>
<svg version="1.1" xmlns:xlink="http://www.w3.org/1999/xlink" width="12px" height="10px" xmlns="http://www.w3.org/2000/svg">
  <g transform="matrix(1 0 0 1 -984 -323 )">
    <path d="M 11.140625 7.140625  C 11.1802083333334 7.10104166666673  11.2 7.05416666666673  11.2 7  L 11.2 1  C 11.2 0.945833333333326  11.1802083333334 0.898958333333326  11.140625 0.859375  C 11.1010416666666 0.819791666666674  11.0541666666666 0.800000000000011  11 1  L 1 1  C 0.945833333333439 0.800000000000011  0.898958333333439 0.819791666666674  0.859375 0.859375  C 0.819791666666561 0.898958333333326  0.799999999999955 0.945833333333326  0.799999999999955 1  L 0.799999999999955 7  C 0.799999999999955 7.05416666666673  0.819791666666561 7.10104166666673  0.859375 7.140625  C 0.898958333333439 7.18020833333333  0.945833333333439 7.19999999999999  1 7  L 11 7  C 11.0541666666666 7.19999999999999  11.1010416666666 7.18020833333333  11.140625 7.140625  Z M 11.70625 0.293749999999932  C 11.9020833333333 0.489583333333371  12 0.725000000000023  12 1  L 12 7  C 12 7.27500000000003  11.9020833333333 7.51041666666663  11.70625 7.70625000000001  C 11.5104166666667 7.90208333333334  11.2749999999999 8  11 8  L 6.39999999999986 8  L 6.39999999999986 8.80000000000001  L 8.60000000000014 8.80000000000001  C 8.6583333333333 8.80000000000001  8.70624999999995 8.81875000000002  8.74374999999986 8.85625000000005  C 8.78125 8.89375000000001  8.79999999999995 8.94166666666666  8.79999999999995 9  L 8.79999999999995 9.40000000000003  C 8.79999999999995 9.45833333333337  8.78125 9.50625000000002  8.74374999999986 9.54374999999999  C 8.70624999999995 9.58125000000001  8.6583333333333 9.60000000000002  8.60000000000014 9.60000000000002  L 3.39999999999986 9.60000000000002  C 3.3416666666667 9.60000000000002  3.29375000000005 9.58125000000001  3.25625000000014 9.54374999999999  C 3.21875 9.50625000000002  3.20000000000005 9.45833333333337  3.20000000000005 9.40000000000003  L 3.20000000000005 9  C 3.20000000000005 8.94166666666666  3.21875 8.89375000000001  3.25625000000014 8.85625000000005  C 3.29375000000005 8.81875000000002  3.3416666666667 8.80000000000001  3.39999999999986 8.80000000000001  L 5.60000000000014 8.80000000000001  L 5.60000000000014 8  L 1 8  C 0.725000000000136 8  0.489583333333258 7.90208333333334  0.293750000000045 7.70625000000001  C 0.0979166666667197 7.51041666666663  0 7.27500000000003  0 7  L 0 1  C 0 0.725000000000023  0.0979166666667197 0.489583333333371  0.293750000000045 0.293749999999932  C 0.489583333333258 0.0979166666667197  0.725000000000136 0  1 0  L 11 0  C 11.2749999999999 0  11.5104166666667 0.0979166666667197  11.70625 0.293749999999932  Z " fill-rule="nonzero" fill="#ffffff" stroke="none" transform="matrix(1 0 0 1 984 323 )" />
  </g>
</svg>