<?xml version="1.0" encoding="utf-8"?>
<svg version="1.1" xmlns:xlink="http://www.w3.org/1999/xlink" width="10px" height="9px" xmlns="http://www.w3.org/2000/svg">
  <g transform="matrix(1 0 0 1 -1610 -1223 )">
    <path d="M 4.66367713004485 6.30000000000007  L 4.97757847533632 6.30000000000007  L 5.627802690583 5.6079545454545  L 4.77578475336327 4.70113636363635  L 4.12556053811659 5.39318181818169  L 4.12556053811659 5.72727272727286  L 4.66367713004485 5.72727272727286  L 4.66367713004485 6.30000000000007  Z M 7.43834080717488 2.20142045454554  C 7.50186846038866 2.13380681818182  7.50373692077727 2.06818181818187  7.44394618834082 2.00454545454545  C 7.38415545590431 1.94090909090914  7.32249626307924 1.94289772727268  7.25896860986546 2.0105113636364  L 5.29708520179372 4.09857954545441  C 5.23355754857994 4.16619318181824  5.23168908819133 4.2318181818182  5.29147982062779 4.29545454545462  C 5.3512705530643 4.35909090909092  5.41292974588936 4.35710227272727  5.4764573991032 4.28948863636367  L 7.43834080717488 2.20142045454554  Z M 7.78026905829591 5.37528409090908  C 7.85500747384151 5.40710227272723  7.89237668161434 5.46477272727282  7.89237668161434 5.5482954545455  L 7.89237668161434 6.68181818181824  C 7.89237668161434 7.15511363636358  7.73449177877427 7.5598011363636  7.41872197309414 7.8958806818182  C 7.102952167414 8.23196022727279  6.72272047832587 8.40000000000009  6.27802690582962 8.40000000000009  L 1.61434977578477 8.40000000000009  C 1.16965620328847 8.40000000000009  0.789424514200334 8.23196022727279  0.473654708520201 7.8958806818182  C 0.157884902840067 7.5598011363636  0 7.15511363636358  0 6.68181818181824  L 0 1.71818181818185  C 0 1.2448863636364  0.157884902840067 0.84019886363626  0.473654708520201 0.504119318181779  C 0.789424514200334 0.168039772727298  1.16965620328847 0  1.61434977578477 0  L 6.27802690582962 0  C 6.51345291479822 0  6.73206278026908 0.0497159090908781  6.93385650224212 0.149147727272748  C 6.98991031390136 0.176988636363603  7.0235426008968 0.222727272727411  7.03475336322873 0.286363636363717  C 7.04596412556054 0.353977272727207  7.0291479820628 0.41164772727268  6.98430493273543 0.459375000000023  L 6.70964125560533 0.751704545454572  C 6.65732436472342 0.807386363636283  6.59753363228702 0.823295454545473  6.53026905829591 0.799431818181915  C 6.44431988041856 0.77556818181813  6.36023916292976 0.763636363636351  6.27802690582962 0.763636363636351  L 1.61434977578477 0.763636363636351  C 1.3677130044843 0.763636363636351  1.15657698056805 0.857102272727275  0.980941704035843 1.04403409090912  C 0.805306427503751 1.23096590909097  0.717488789237677 1.4556818181818  0.717488789237677 1.71818181818185  L 0.717488789237677 6.68181818181824  C 0.717488789237677 6.94431818181818  0.805306427503751 7.16903409090912  0.980941704035843 7.35596590909097  C 1.15657698056805 7.5428977272727  1.3677130044843 7.63636363636363  1.61434977578477 7.63636363636363  L 6.27802690582962 7.63636363636363  C 6.52466367713004 7.63636363636363  6.73579970104629 7.5428977272727  6.91143497757849 7.35596590909097  C 7.08707025411064 7.16903409090912  7.17488789237666 6.94431818181818  7.17488789237666 6.68181818181824  L 7.17488789237666 5.93011363636367  C 7.17488789237666 5.87840909090903  7.19170403587447 5.83465909090899  7.22533632286996 5.79886363636365  L 7.5840807174888 5.41704545454547  C 7.64013452914799 5.35738636363646  7.70553064275038 5.34346590909092  7.78026905829591 5.37528409090908  Z M 3.58744394618833 5.15454545454543  L 7.35426008968614 1.14545454545453  L 8.96860986547085 2.86363636363637  L 5.20179372197305 6.87272727272739  L 3.58744394618833 6.87272727272739  L 3.58744394618833 5.15454545454543  Z M 10 1.5272727272727  C 10 1.68636363636358  9.94768310911809 1.8215909090909  9.84304932735427 1.93295454545444  L 9.32735426008969 2.4818181818182  L 7.71300448430492 0.763636363636351  L 8.22869955156949 0.214772727272816  C 8.33333333333331 0.103409090909054  8.46038863976082 0.0477272727272293  8.60986547085201 0.0477272727272293  C 8.75934230194321 0.0477272727272293  8.88639760837071 0.103409090909054  8.99103139013454 0.214772727272816  L 9.84304932735427 1.12159090909086  C 9.94768310911809 1.2329545454545  10 1.36818181818182  10 1.5272727272727  Z " fill-rule="nonzero" fill="#999999" stroke="none" transform="matrix(1 0 0 1 1610 1223 )" />
  </g>
</svg>