<?xml version="1.0" encoding="utf-8"?>
<svg version="1.1" xmlns:xlink="http://www.w3.org/1999/xlink" width="11px" height="10px" xmlns="http://www.w3.org/2000/svg">
  <g transform="matrix(1 0 0 1 -106 -827 )">
    <path d="M 5.13004484304933 6.93000000000006  L 5.47533632286995 6.93000000000006  L 6.1905829596413 6.16874999999993  L 5.2533632286996 5.17124999999999  L 4.53811659192824 5.93249999999989  L 4.53811659192824 6.30000000000018  L 5.13004484304933 6.30000000000018  L 5.13004484304933 6.93000000000006  Z M 8.18217488789237 2.42156250000016  C 8.25205530642754 2.34718750000002  8.254110612855 2.27499999999998  8.1883408071749 2.20499999999993  C 8.12257100149473 2.13499999999999  8.05474588938716 2.13718749999987  7.984865470852 2.21156250000001  L 5.82679372197309 4.5084374999999  C 5.75691330343794 4.58281250000005  5.75485799701046 4.65500000000009  5.82062780269057 4.72500000000014  C 5.88639760837073 4.79500000000007  5.95422272047828 4.79281249999997  6.02410313901352 4.71843750000005  L 8.18217488789237 2.42156250000016  Z M 8.55829596412551 5.91281249999997  C 8.64050822122566 5.94781249999994  8.68161434977577 6.01125000000013  8.68161434977577 6.10312500000009  L 8.68161434977577 7.35000000000002  C 8.68161434977577 7.8706249999999  8.50794095665169 8.31578124999999  8.16059417040356 8.68546875000004  C 7.8132473841554 9.0551562500001  7.39499252615845 9.24000000000012  6.90582959641257 9.24000000000012  L 1.77578475336325 9.24000000000012  C 1.28662182361732 9.24000000000012  0.868366965620368 9.0551562500001  0.521020179372229 8.68546875000004  C 0.173673393124076 8.31578124999999  0 7.8706249999999  0 7.35000000000002  L 0 1.8900000000001  C 0 1.3693750000001  0.173673393124076 0.924218749999909  0.521020179372229 0.554531249999968  C 0.868366965620368 0.184843750000027  1.28662182361732 0  1.77578475336325 0  L 6.90582959641257 0  C 7.16479820627804 0  7.40526905829599 0.0546874999998863  7.62724215246634 0.1640625  C 7.6889013452915 0.194687499999986  7.72589686098648 0.245000000000232  7.73822869955161 0.315000000000168  C 7.7505605381166 0.389374999999859  7.73206278026908 0.452812499999936  7.68273542600896 0.505312499999945  L 7.38060538116586 0.826875000000086  C 7.32305680119576 0.888124999999832  7.25728699551573 0.9056250000001  7.18329596412551 0.879375000000095  C 7.08875186846042 0.853124999999864  6.99626307922274 0.839999999999918  6.90582959641257 0.839999999999918  L 1.77578475336325 0.839999999999918  C 1.50448430493273 0.839999999999918  1.27223467862486 0.942812500000059  1.07903587443943 1.14843750000011  C 0.885837070254127 1.35406250000005  0.789237668161448 1.60125000000005  0.789237668161448 1.8900000000001  L 0.789237668161448 7.35000000000002  C 0.789237668161448 7.63874999999996  0.885837070254127 7.88593750000007  1.07903587443943 8.09156250000012  C 1.27223467862486 8.29718749999995  1.50448430493273 8.39999999999998  1.77578475336325 8.39999999999998  L 6.90582959641257 8.39999999999998  C 7.17713004484304 8.39999999999998  7.40937967115092 8.29718749999995  7.60257847533634 8.09156250000012  C 7.79577727952172 7.88593750000007  7.89237668161432 7.63874999999996  7.89237668161432 7.35000000000002  L 7.89237668161432 6.52312500000005  C 7.89237668161432 6.46624999999995  7.91087443946192 6.41812499999992  7.94786995515696 6.37875000000008  L 8.34248878923768 5.95875000000001  C 8.40414798206278 5.89312500000017  8.47608370702541 5.8778125  8.55829596412551 5.91281249999997  Z M 3.94618834080715 5.66999999999996  L 8.08968609865475 1.25999999999999  L 9.86547085201794 3.14999999999998  L 5.72197309417035 7.56000000000017  L 3.94618834080715 7.56000000000017  L 3.94618834080715 5.66999999999996  Z M 11 1.67999999999995  C 11 1.85500000000002  10.9424514200299 2.00374999999997  10.8273542600897 2.1262499999998  L 10.2600896860987 2.73000000000002  L 8.48430493273541 0.839999999999918  L 9.05156950672644 0.236250000000155  C 9.16666666666664 0.113749999999982  9.3064275037369 0.0525000000000091  9.47085201793722 0.0525000000000091  C 9.63527653213752 0.0525000000000091  9.77503736920778 0.113749999999982  9.89013452914799 0.236250000000155  L 10.8273542600897 1.23374999999987  C 10.9424514200299 1.35624999999993  11 1.505  11 1.67999999999995  Z " fill-rule="nonzero" fill="#999999" stroke="none" transform="matrix(1 0 0 1 106 827 )" />
  </g>
</svg>