<?xml version="1.0" encoding="utf-8"?>
<svg version="1.1" xmlns:xlink="http://www.w3.org/1999/xlink" width="60px" height="24px" xmlns="http://www.w3.org/2000/svg">
  <g transform="matrix(1 0 0 1 -826 -2030 )">
    <path d="M 827 2033  A 2 2 0 0 1 829 2031 L 883 2031  A 2 2 0 0 1 885 2033 L 885 2051  A 2 2 0 0 1 883 2053 L 829 2053  A 2 2 0 0 1 827 2051 L 827 2033  Z " fill-rule="nonzero" fill="#ffffff" stroke="none" />
    <path d="M 826.5 2033  A 2.5 2.5 0 0 1 829 2030.5 L 883 2030.5  A 2.5 2.5 0 0 1 885.5 2033 L 885.5 2051  A 2.5 2.5 0 0 1 883 2053.5 L 829 2053.5  A 2.5 2.5 0 0 1 826.5 2051 L 826.5 2033  Z " stroke-width="1" stroke="#999999" fill="none" stroke-opacity="0.498039215686275" />
  </g>
</svg>