<?xml version="1.0" encoding="utf-8"?>
<svg version="1.1" xmlns:xlink="http://www.w3.org/1999/xlink" width="48px" height="23px" xmlns="http://www.w3.org/2000/svg">
  <g transform="matrix(1 0 0 1 -1003 -608 )">
    <path d="M 1004 610  A 1 1 0 0 1 1005 609 L 1049 609  A 1 1 0 0 1 1050 610 L 1050 629  A 1 1 0 0 1 1049 630 L 1005 630  A 1 1 0 0 1 1004 629 L 1004 610  Z " fill-rule="nonzero" fill="#ffffff" stroke="none" />
    <path d="M 1003.5 610  A 1.5 1.5 0 0 1 1005 608.5 L 1049 608.5  A 1.5 1.5 0 0 1 1050.5 610 L 1050.5 629  A 1.5 1.5 0 0 1 1049 630.5 L 1005 630.5  A 1.5 1.5 0 0 1 1003.5 629 L 1003.5 610  Z " stroke-width="1" stroke="#999999" fill="none" stroke-opacity="0.498039215686275" />
  </g>
</svg>