<?xml version="1.0" encoding="utf-8"?>
<svg version="1.1" xmlns:xlink="http://www.w3.org/1999/xlink" width="12px" height="12px" viewBox="425 1007  12 12" xmlns="http://www.w3.org/2000/svg">
  <path d="M 431 1007  C 434.36 1007  437 1009.64  437 1013  C 437 1016.36  434.36 1019  431 1019  C 427.64 1019  425 1016.36  425 1013  C 425 1009.64  427.64 1007  431 1007  Z " fill-rule="nonzero" fill="#f0f0f0" stroke="none" />
  <path d="M 431 1007.5  C 434.08 1007.5  436.5 1009.92  436.5 1013  C 436.5 1016.08  434.08 1018.5  431 1018.5  C 427.92 1018.5  425.5 1016.08  425.5 1013  C 425.5 1009.92  427.92 1007.5  431 1007.5  Z " stroke-width="1" stroke="#797979" fill="none" />
  <path d="M 431 1016  C 429.32 1016  428 1014.68  428 1013  C 428 1011.32  429.32 1010  431 1010  C 432.68 1010  434 1011.32  434 1013  C 434 1014.68  432.68 1016  431 1016  " fill-rule="nonzero" fill="#797979" stroke="none" />
</svg>