<?xml version="1.0" encoding="utf-8"?>
<svg version="1.1" xmlns:xlink="http://www.w3.org/1999/xlink" width="12px" height="12px" viewBox="341 759  12 12" xmlns="http://www.w3.org/2000/svg">
  <path d="M 347 759  C 350.36 759  353 761.64  353 765  C 353 768.36  350.36 771  347 771  C 343.64 771  341 768.36  341 765  C 341 761.64  343.64 759  347 759  Z " fill-rule="nonzero" fill="#f0f0f0" stroke="none" />
  <path d="M 347 759.5  C 350.08 759.5  352.5 761.92  352.5 765  C 352.5 768.08  350.08 770.5  347 770.5  C 343.92 770.5  341.5 768.08  341.5 765  C 341.5 761.92  343.92 759.5  347 759.5  Z " stroke-width="1" stroke="#797979" fill="none" />
  <path d="M 347 768  C 345.32 768  344 766.68  344 765  C 344 763.32  345.32 762  347 762  C 348.68 762  350 763.32  350 765  C 350 766.68  348.68 768  347 768  " fill-rule="nonzero" fill="#797979" stroke="none" />
</svg>