<?xml version="1.0" encoding="utf-8"?>
<svg version="1.1" xmlns:xlink="http://www.w3.org/1999/xlink" width="12px" height="12px" viewBox="341 1070  12 12" xmlns="http://www.w3.org/2000/svg">
  <path d="M 347 1070  C 350.36 1070  353 1072.64  353 1076  C 353 1079.36  350.36 1082  347 1082  C 343.64 1082  341 1079.36  341 1076  C 341 1072.64  343.64 1070  347 1070  Z " fill-rule="nonzero" fill="#f0f0f0" stroke="none" />
  <path d="M 347 1070.5  C 350.08 1070.5  352.5 1072.92  352.5 1076  C 352.5 1079.08  350.08 1081.5  347 1081.5  C 343.92 1081.5  341.5 1079.08  341.5 1076  C 341.5 1072.92  343.92 1070.5  347 1070.5  Z " stroke-width="1" stroke="#797979" fill="none" />
  <path d="M 347 1079  C 345.32 1079  344 1077.68  344 1076  C 344 1074.32  345.32 1073  347 1073  C 348.68 1073  350 1074.32  350 1076  C 350 1077.68  348.68 1079  347 1079  " fill-rule="nonzero" fill="#797979" stroke="none" />
</svg>