<?xml version="1.0" encoding="utf-8"?>
<svg version="1.1" xmlns:xlink="http://www.w3.org/1999/xlink" width="12px" height="12px" viewBox="404 685  12 12" xmlns="http://www.w3.org/2000/svg">
  <path d="M 410 685  C 413.36 685  416 687.64  416 691  C 416 694.36  413.36 697  410 697  C 406.64 697  404 694.36  404 691  C 404 687.64  406.64 685  410 685  Z " fill-rule="nonzero" fill="#f0f0f0" stroke="none" />
  <path d="M 410 685.5  C 413.08 685.5  415.5 687.92  415.5 691  C 415.5 694.08  413.08 696.5  410 696.5  C 406.92 696.5  404.5 694.08  404.5 691  C 404.5 687.92  406.92 685.5  410 685.5  Z " stroke-width="1" stroke="#797979" fill="none" />
  <path d="M 410 694  C 408.32 694  407 692.68  407 691  C 407 689.32  408.32 688  410 688  C 411.68 688  413 689.32  413 691  C 413 692.68  411.68 694  410 694  " fill-rule="nonzero" fill="#797979" stroke="none" />
</svg>