<?xml version="1.0" encoding="utf-8"?>
<svg version="1.1" xmlns:xlink="http://www.w3.org/1999/xlink" width="12px" height="12px" viewBox="341 953  12 12" xmlns="http://www.w3.org/2000/svg">
  <path d="M 347 953  C 350.36 953  353 955.64  353 959  C 353 962.36  350.36 965  347 965  C 343.64 965  341 962.36  341 959  C 341 955.64  343.64 953  347 953  Z " fill-rule="nonzero" fill="#ffffff" stroke="none" />
  <path d="M 347 953.5  C 350.08 953.5  352.5 955.92  352.5 959  C 352.5 962.08  350.08 964.5  347 964.5  C 343.92 964.5  341.5 962.08  341.5 959  C 341.5 955.92  343.92 953.5  347 953.5  Z " stroke-width="1" stroke="#797979" fill="none" />
  <path d="M 347 962  C 345.32 962  344 960.68  344 959  C 344 957.32  345.32 956  347 956  C 348.68 956  350 957.32  350 959  C 350 960.68  348.68 962  347 962  " fill-rule="nonzero" fill="#797979" stroke="none" />
</svg>