<?xml version="1.0" encoding="utf-8"?>
<svg version="1.1" xmlns:xlink="http://www.w3.org/1999/xlink" width="12px" height="12px" viewBox="458 759  12 12" xmlns="http://www.w3.org/2000/svg">
  <path d="M 464 759  C 467.36 759  470 761.64  470 765  C 470 768.36  467.36 771  464 771  C 460.64 771  458 768.36  458 765  C 458 761.64  460.64 759  464 759  Z " fill-rule="nonzero" fill="#f0f0f0" stroke="none" />
  <path d="M 464 759.5  C 467.08 759.5  469.5 761.92  469.5 765  C 469.5 768.08  467.08 770.5  464 770.5  C 460.92 770.5  458.5 768.08  458.5 765  C 458.5 761.92  460.92 759.5  464 759.5  Z " stroke-width="1" stroke="#797979" fill="none" />
  <path d="M 464 768  C 462.32 768  461 766.68  461 765  C 461 763.32  462.32 762  464 762  C 465.68 762  467 763.32  467 765  C 467 766.68  465.68 768  464 768  " fill-rule="nonzero" fill="#797979" stroke="none" />
</svg>