<?xml version="1.0" encoding="utf-8"?>
<svg version="1.1" xmlns:xlink="http://www.w3.org/1999/xlink" width="12px" height="12px" viewBox="404 586  12 12" xmlns="http://www.w3.org/2000/svg">
  <path d="M 410 586  C 413.36 586  416 588.64  416 592  C 416 595.36  413.36 598  410 598  C 406.64 598  404 595.36  404 592  C 404 588.64  406.64 586  410 586  Z " fill-rule="nonzero" fill="#ffffff" stroke="none" />
  <path d="M 410 586.5  C 413.08 586.5  415.5 588.92  415.5 592  C 415.5 595.08  413.08 597.5  410 597.5  C 406.92 597.5  404.5 595.08  404.5 592  C 404.5 588.92  406.92 586.5  410 586.5  Z " stroke-width="1" stroke="#797979" fill="none" />
  <path d="M 410 595  C 408.32 595  407 593.68  407 592  C 407 590.32  408.32 589  410 589  C 411.68 589  413 590.32  413 592  C 413 593.68  411.68 595  410 595  " fill-rule="nonzero" fill="#797979" stroke="none" />
</svg>