<?xml version="1.0" encoding="utf-8"?>
<svg version="1.1" xmlns:xlink="http://www.w3.org/1999/xlink" width="12px" height="12px" viewBox="458 953  12 12" xmlns="http://www.w3.org/2000/svg">
  <path d="M 464 953  C 467.36 953  470 955.64  470 959  C 470 962.36  467.36 965  464 965  C 460.64 965  458 962.36  458 959  C 458 955.64  460.64 953  464 953  Z " fill-rule="nonzero" fill="#ffffff" stroke="none" />
  <path d="M 464 953.5  C 467.08 953.5  469.5 955.92  469.5 959  C 469.5 962.08  467.08 964.5  464 964.5  C 460.92 964.5  458.5 962.08  458.5 959  C 458.5 955.92  460.92 953.5  464 953.5  Z " stroke-width="1" stroke="#797979" fill="none" />
  <path d="M 464 962  C 462.32 962  461 960.68  461 959  C 461 957.32  462.32 956  464 956  C 465.68 956  467 957.32  467 959  C 467 960.68  465.68 962  464 962  " fill-rule="nonzero" fill="#797979" stroke="none" />
</svg>