<?xml version="1.0" encoding="utf-8"?>
<svg version="1.1" xmlns:xlink="http://www.w3.org/1999/xlink" width="12px" height="12px" viewBox="404 953  12 12" xmlns="http://www.w3.org/2000/svg">
  <path d="M 410 953  C 413.36 953  416 955.64  416 959  C 416 962.36  413.36 965  410 965  C 406.64 965  404 962.36  404 959  C 404 955.64  406.64 953  410 953  Z " fill-rule="nonzero" fill="#ffffff" stroke="none" />
  <path d="M 410 953.5  C 413.08 953.5  415.5 955.92  415.5 959  C 415.5 962.08  413.08 964.5  410 964.5  C 406.92 964.5  404.5 962.08  404.5 959  C 404.5 955.92  406.92 953.5  410 953.5  Z " stroke-width="1" stroke="#797979" fill="none" />
  <path d="M 410 962  C 408.32 962  407 960.68  407 959  C 407 957.32  408.32 956  410 956  C 411.68 956  413 957.32  413 959  C 413 960.68  411.68 962  410 962  " fill-rule="nonzero" fill="#797979" stroke="none" />
</svg>