<?xml version="1.0" encoding="utf-8"?>
<svg version="1.1" xmlns:xlink="http://www.w3.org/1999/xlink" width="12px" height="12px" viewBox="341 1126  12 12" xmlns="http://www.w3.org/2000/svg">
  <path d="M 347 1126  C 350.36 1126  353 1128.64  353 1132  C 353 1135.36  350.36 1138  347 1138  C 343.64 1138  341 1135.36  341 1132  C 341 1128.64  343.64 1126  347 1126  Z " fill-rule="nonzero" fill="#ffffff" stroke="none" />
  <path d="M 347 1126.5  C 350.08 1126.5  352.5 1128.92  352.5 1132  C 352.5 1135.08  350.08 1137.5  347 1137.5  C 343.92 1137.5  341.5 1135.08  341.5 1132  C 341.5 1128.92  343.92 1126.5  347 1126.5  Z " stroke-width="1" stroke="#797979" fill="none" />
  <path d="M 347 1135  C 345.32 1135  344 1133.68  344 1132  C 344 1130.32  345.32 1129  347 1129  C 348.68 1129  350 1130.32  350 1132  C 350 1133.68  348.68 1135  347 1135  " fill-rule="nonzero" fill="#797979" stroke="none" />
</svg>