<?xml version="1.0" encoding="utf-8"?>
<svg version="1.1" xmlns:xlink="http://www.w3.org/1999/xlink" width="12px" height="12px" viewBox="404 759  12 12" xmlns="http://www.w3.org/2000/svg">
  <path d="M 410 759  C 413.36 759  416 761.64  416 765  C 416 768.36  413.36 771  410 771  C 406.64 771  404 768.36  404 765  C 404 761.64  406.64 759  410 759  Z " fill-rule="nonzero" fill="#ffffff" stroke="none" />
  <path d="M 410 759.5  C 413.08 759.5  415.5 761.92  415.5 765  C 415.5 768.08  413.08 770.5  410 770.5  C 406.92 770.5  404.5 768.08  404.5 765  C 404.5 761.92  406.92 759.5  410 759.5  Z " stroke-width="1" stroke="#797979" fill="none" />
  <path d="M 410 768  C 408.32 768  407 766.68  407 765  C 407 763.32  408.32 762  410 762  C 411.68 762  413 763.32  413 765  C 413 766.68  411.68 768  410 768  " fill-rule="nonzero" fill="#797979" stroke="none" />
</svg>