<?xml version="1.0" encoding="utf-8"?>
<svg version="1.1" xmlns:xlink="http://www.w3.org/1999/xlink" width="12px" height="12px" viewBox="458 1126  12 12" xmlns="http://www.w3.org/2000/svg">
  <path d="M 464 1126  C 467.36 1126  470 1128.64  470 1132  C 470 1135.36  467.36 1138  464 1138  C 460.64 1138  458 1135.36  458 1132  C 458 1128.64  460.64 1126  464 1126  Z " fill-rule="nonzero" fill="#ffffff" stroke="none" />
  <path d="M 464 1126.5  C 467.08 1126.5  469.5 1128.92  469.5 1132  C 469.5 1135.08  467.08 1137.5  464 1137.5  C 460.92 1137.5  458.5 1135.08  458.5 1132  C 458.5 1128.92  460.92 1126.5  464 1126.5  Z " stroke-width="1" stroke="#797979" fill="none" />
  <path d="M 464 1135  C 462.32 1135  461 1133.68  461 1132  C 461 1130.32  462.32 1129  464 1129  C 465.68 1129  467 1130.32  467 1132  C 467 1133.68  465.68 1135  464 1135  " fill-rule="nonzero" fill="#797979" stroke="none" />
</svg>