<?xml version="1.0" encoding="utf-8"?>
<svg version="1.1" xmlns:xlink="http://www.w3.org/1999/xlink" width="12px" height="12px" viewBox="341 1184  12 12" xmlns="http://www.w3.org/2000/svg">
  <path d="M 347 1184  C 350.36 1184  353 1186.64  353 1190  C 353 1193.36  350.36 1196  347 1196  C 343.64 1196  341 1193.36  341 1190  C 341 1186.64  343.64 1184  347 1184  Z " fill-rule="nonzero" fill="#ffffff" stroke="none" />
  <path d="M 347 1184.5  C 350.08 1184.5  352.5 1186.92  352.5 1190  C 352.5 1193.08  350.08 1195.5  347 1195.5  C 343.92 1195.5  341.5 1193.08  341.5 1190  C 341.5 1186.92  343.92 1184.5  347 1184.5  Z " stroke-width="1" stroke="#797979" fill="none" />
  <path d="M 347 1193  C 345.32 1193  344 1191.68  344 1190  C 344 1188.32  345.32 1187  347 1187  C 348.68 1187  350 1188.32  350 1190  C 350 1191.68  348.68 1193  347 1193  " fill-rule="nonzero" fill="#797979" stroke="none" />
</svg>