<?xml version="1.0" encoding="utf-8"?>
<svg version="1.1" xmlns:xlink="http://www.w3.org/1999/xlink" width="13px" height="8px" xmlns="http://www.w3.org/2000/svg">
  <g transform="matrix(1 0 0 1 -358 -2858 )">
    <path d="M 12.7587890625 0.24013888888885  C 12.9195963541667 0.400231481481569  13 0.589814814814872  13 0.80888888888876  C 13 1.0279629629631  12.9195963541667 1.2175462962964  12.7587890625 1.37763888888912  L 7.0712890625 7.03986111111135  C 6.91048177083332 7.19995370370407  6.72005208333332 7.2800000000002  6.5 7.2800000000002  C 6.27994791666669 7.2800000000002  6.08951822916669 7.19995370370407  5.9287109375 7.03986111111135  L 0.2412109375 1.37763888888912  C 0.0804036458333144 1.2175462962964  0 1.0279629629631  0 0.80888888888876  C 0 0.589814814814872  0.0804036458333144 0.400231481481569  0.2412109375 0.24013888888885  C 0.402018229166686 0.0800462962961319  0.592447916666686 0  0.8125 0  L 12.1875 0  C 12.4075520833333 0  12.5979817708333 0.0800462962961319  12.7587890625 0.24013888888885  Z " fill-rule="nonzero" fill="#ffffff" stroke="none" transform="matrix(1 0 0 1 358 2858 )" />
  </g>
</svg>