<?xml version="1.0" encoding="utf-8"?>
<svg version="1.1" xmlns:xlink="http://www.w3.org/1999/xlink" width="455px" height="285px" xmlns="http://www.w3.org/2000/svg">
  <g transform="matrix(1 0 0 1 -413 -878 )">
    <path d="M 414 892  A 13 13 0 0 1 427 879 L 854 879  A 13 13 0 0 1 867 892 L 867 1149  A 13 13 0 0 1 854 1162 L 427 1162  A 13 13 0 0 1 414 1149 L 414 892  Z " fill-rule="nonzero" fill="#ffffff" stroke="none" />
    <path d="M 413.5 892  A 13.5 13.5 0 0 1 427 878.5 L 854 878.5  A 13.5 13.5 0 0 1 867.5 892 L 867.5 1149  A 13.5 13.5 0 0 1 854 1162.5 L 427 1162.5  A 13.5 13.5 0 0 1 413.5 1149 L 413.5 892  Z " stroke-width="1" stroke="#797979" fill="none" stroke-opacity="0.247058823529412" />
  </g>
</svg>