<?xml version="1.0" encoding="utf-8"?>
<svg version="1.1" xmlns:xlink="http://www.w3.org/1999/xlink" width="12px" height="10px" xmlns="http://www.w3.org/2000/svg">
  <g transform="matrix(1 0 0 1 -352 -170 )">
    <path d="M 5.59641255605379 7.01999999999998  L 5.97309417040361 7.01999999999998  L 6.75336322869953 6.24886363636364  L 5.7309417040359 5.2384090909091  L 4.95067264573993 6.00954545454545  L 4.95067264573993 6.38181818181818  L 5.59641255605379 6.38181818181818  L 5.59641255605379 7.01999999999998  Z M 8.92600896860989 2.45301136363639  C 9.00224215246635 2.37767045454547  9.00448430493276 2.30454545454546  8.93273542600895 2.23363636363638  C 8.86098654708519 2.1627272727273  8.78699551569508 2.16494318181816  8.71076233183857 2.24028409090909  L 6.35650224215249 4.56698863636365  C 6.28026905829597 4.64232954545457  6.27802690582962 4.71545454545458  6.34977578475338 4.78636363636366  C 6.42152466367713 4.85727272727274  6.49551569506724 4.85505681818182  6.57174887892376 4.7797159090909  L 8.92600896860989 2.45301136363639  Z M 9.33632286995515 5.98960227272727  C 9.42600896860989 6.02505681818184  9.4708520179372 6.08931818181821  9.4708520179372 6.1823863636364  L 9.4708520179372 7.44545454545454  C 9.4708520179372 7.97284090909091  9.28139013452915 8.42377840909091  8.90246636771303 8.79826704545457  C 8.52354260089686 9.17275568181822  8.06726457399105 9.36000000000001  7.5336322869955 9.36000000000001  L 1.93721973094171 9.36000000000001  C 1.40358744394621 9.36000000000001  0.947309417040344 9.17275568181822  0.568385650224229 8.79826704545457  C 0.189461883408057 8.42377840909091  0 7.97284090909091  0 7.44545454545454  L 0 1.91454545454548  C 0 1.38715909090911  0.189461883408057 0.936221590909099  0.568385650224229 0.561732954545448  C 0.947309417040344 0.187244318181797  1.40358744394621 0  1.93721973094171 0  L 7.5336322869955 0  C 7.81614349775782 0  8.07847533632287 0.0553977272727479  8.32062780269058 0.166193181818187  C 8.38789237668163 0.197215909090914  8.42825112107624 0.24818181818182  8.44170403587447 0.319090909090903  C 8.45515695067263 0.394431818181829  8.43497757847535 0.458693181818205  8.38116591928252 0.511874999999975  L 8.05156950672648 0.837613636363642  C 7.98878923766819 0.899659090909097  7.91704035874437 0.917386363636354  7.83632286995515 0.890795454545469  C 7.73318385650225 0.864204545454527  7.6322869955157 0.850909090909113  7.5336322869955 0.850909090909113  L 1.93721973094171 0.850909090909113  C 1.64125560538116 0.850909090909113  1.38789237668163 0.955056818181845  1.17713004484307 1.16335227272725  C 0.966367713004502 1.37164772727272  0.86098654708519 1.62204545454546  0.86098654708519 1.91454545454548  L 0.86098654708519 7.44545454545454  C 0.86098654708519 7.73795454545456  0.966367713004502 7.9883522727273  1.17713004484307 8.19664772727276  C 1.38789237668163 8.40494318181817  1.64125560538116 8.5090909090909  1.93721973094171 8.5090909090909  L 7.5336322869955 8.5090909090909  C 7.82959641255604 8.5090909090909  8.08295964125563 8.40494318181817  8.29372197309419 8.19664772727276  C 8.50448430493276 7.9883522727273  8.60986547085201 7.73795454545456  8.60986547085201 7.44545454545454  L 8.60986547085201 6.6078409090909  C 8.60986547085201 6.55022727272728  8.63004484304935 6.5014772727273  8.67040358744396 6.46159090909094  L 9.10089686098655 6.03613636363639  C 9.16816143497761 5.96965909090909  9.24663677130047 5.95414772727275  9.33632286995515 5.98960227272727  Z M 4.30493273542601 5.74363636363637  L 8.82511210762334 1.27636363636361  L 10.762331838565 3.19090909090909  L 6.24215246636771 7.65818181818184  L 4.30493273542601 7.65818181818184  L 4.30493273542601 5.74363636363637  Z M 12 1.70181818181817  C 12 1.87909090909091  11.9372197309417 2.02977272727276  11.8116591928251 2.15386363636367  L 11.1928251121076 2.76545454545453  L 9.25560538116594 0.850909090909113  L 9.87443946188341 0.239318181818192  C 10 0.115227272727282  10.152466367713 0.0531818181818267  10.3318385650224 0.0531818181818267  C 10.5112107623318 0.0531818181818267  10.6636771300448 0.115227272727282  10.7892376681614 0.239318181818192  L 11.8116591928251 1.24977272727273  C 11.9372197309417 1.37386363636364  12 1.52454545454543  12 1.70181818181817  Z " fill-rule="nonzero" fill="#999999" stroke="none" transform="matrix(1 0 0 1 352 170 )" />
  </g>
</svg>