<?xml version="1.0" encoding="utf-8"?>
<svg version="1.1" xmlns:xlink="http://www.w3.org/1999/xlink" width="12px" height="12px" viewBox="264 978  12 12" xmlns="http://www.w3.org/2000/svg">
  <path d="M 270 978  C 273.36 978  276 980.64  276 984  C 276 987.36  273.36 990  270 990  C 266.64 990  264 987.36  264 984  C 264 980.64  266.64 978  270 978  Z " fill-rule="nonzero" fill="#ffffff" stroke="none" />
  <path d="M 270 978.5  C 273.08 978.5  275.5 980.92  275.5 984  C 275.5 987.08  273.08 989.5  270 989.5  C 266.92 989.5  264.5 987.08  264.5 984  C 264.5 980.92  266.92 978.5  270 978.5  Z " stroke-width="1" stroke="#797979" fill="none" />
  <path d="M 270 987  C 268.32 987  267 985.68  267 984  C 267 982.32  268.32 981  270 981  C 271.68 981  273 982.32  273 984  C 273 985.68  271.68 987  270 987  " fill-rule="nonzero" fill="#797979" stroke="none" />
</svg>