<?xml version="1.0" encoding="utf-8"?>
<svg version="1.1" xmlns:xlink="http://www.w3.org/1999/xlink" width="68px" height="102px" xmlns="http://www.w3.org/2000/svg">
  <g transform="matrix(1 0 0 1 -268 -1002 )">
    <path d="M 268 1002  L 336 1002  L 336 1104  L 268 1104  L 268 1002  " fill-rule="nonzero" fill="#cccccc" stroke="none" />
    <path d="M 273 1007  L 331 1007  L 331 1099  L 273 1099  L 273 1007  " fill-rule="nonzero" fill="#ffffff" stroke="none" />
    <path d="M 308.46 1027.5  C 305.604 1027.5  303.36 1025.256  303.36 1022.4  C 303.36 1019.544  305.604 1017.3  308.46 1017.3  C 311.316 1017.3  313.56 1019.544  313.56 1022.4  C 313.56 1025.256  311.316 1027.5  308.46 1027.5  " fill-rule="nonzero" fill="#cccccc" stroke="none" />
    <path d="M 275 1098  L 275 1049.05  L 288.75 1026.8  L 308 1044.6  L 319 1040.15  L 330 1044.6  L 330 1098  L 275 1098  " fill-rule="nonzero" fill="#169bd5" stroke="none" />
  </g>
</svg>