<?xml version="1.0" encoding="utf-8"?>
<svg version="1.1" xmlns:xlink="http://www.w3.org/1999/xlink" width="12px" height="12px" viewBox="652 978  12 12" xmlns="http://www.w3.org/2000/svg">
  <path d="M 658 978  C 661.36 978  664 980.64  664 984  C 664 987.36  661.36 990  658 990  C 654.64 990  652 987.36  652 984  C 652 980.64  654.64 978  658 978  Z " fill-rule="nonzero" fill="#f0f0f0" stroke="none" />
  <path d="M 658 978.5  C 661.08 978.5  663.5 980.92  663.5 984  C 663.5 987.08  661.08 989.5  658 989.5  C 654.92 989.5  652.5 987.08  652.5 984  C 652.5 980.92  654.92 978.5  658 978.5  Z " stroke-width="1" stroke="#797979" fill="none" />
  <path d="M 658 987  C 656.32 987  655 985.68  655 984  C 655 982.32  656.32 981  658 981  C 659.68 981  661 982.32  661 984  C 661 985.68  659.68 987  658 987  " fill-rule="nonzero" fill="#797979" stroke="none" />
</svg>