<?xml version="1.0" encoding="utf-8"?>
<svg version="1.1" xmlns:xlink="http://www.w3.org/1999/xlink" width="10px" height="10px" xmlns="http://www.w3.org/2000/svg">
  <g transform="matrix(1 0 0 1 -204 -1314 )">
    <path d="M 209 1314.5  C 211.52 1314.5  213.5 1316.48  213.5 1319  C 213.5 1321.52  211.52 1323.5  209 1323.5  C 206.48 1323.5  204.5 1321.52  204.5 1319  C 204.5 1316.48  206.48 1314.5  209 1314.5  Z " fill-rule="nonzero" fill="#ffffff" stroke="none" />
    <path d="M 209 1314.5  C 211.52 1314.5  213.5 1316.48  213.5 1319  C 213.5 1321.52  211.52 1323.5  209 1323.5  C 206.48 1323.5  204.5 1321.52  204.5 1319  C 204.5 1316.48  206.48 1314.5  209 1314.5  Z " stroke-width="1" stroke="#797979" fill="none" stroke-opacity="0.556862745098039" />
  </g>
</svg>