<?xml version="1.0" encoding="utf-8"?>
<svg version="1.1" xmlns:xlink="http://www.w3.org/1999/xlink" width="8px" height="6px" xmlns="http://www.w3.org/2000/svg">
  <g transform="matrix(1 0 0 1 -227 -1277 )">
    <path d="M 8 1.13530434782615  C 8 1.22269887278571  7.96856906534327 1.29772624798716  7.90570719602979 1.36038647343003  L 4.22332506203475 5.02600966183581  C 4.16046319272127 5.08866988727846  4.08602150537635 5.11999999999989  4 5.11999999999989  C 3.91397849462365 5.11999999999989  3.83953680727873 5.08866988727846  3.77667493796525 5.02600966183581  L 0.0942928039702053 1.36038647343003  C 0.0314309346567256 1.29772624798716  0 1.22269887278571  0 1.13530434782615  C 0 1.04790982286636  0.0314309346567256 0.972882447665143  0.0942928039702053 0.910222222222274  L 0.918114143920604 0.0939903381643035  C 0.980976013234056 0.0313301127214345  1.05541770057897 0  1.14143920595535 0  C 1.2274607113317 0  1.30190239867662 0.0313301127214345  1.3647642679901 0.0939903381643035  L 4 2.72077294685982  L 6.6352357320099 0.0939903381643035  C 6.69809760132338 0.0313301127214345  6.7725392886683 0  6.85856079404465 0  C 6.94458229942103 0  7.01902398676594 0.0313301127214345  7.0818858560794 0.0939903381643035  L 7.90570719602979 0.910222222222274  C 7.96856906534327 0.972882447665143  8 1.04790982286636  8 1.13530434782615  Z " fill-rule="nonzero" fill="#999999" stroke="none" transform="matrix(1 0 0 1 227 1277 )" />
  </g>
</svg>