<?xml version="1.0" encoding="utf-8"?>
<svg version="1.1" xmlns:xlink="http://www.w3.org/1999/xlink" width="60px" height="24px" xmlns="http://www.w3.org/2000/svg">
  <g transform="matrix(1 0 0 1 -214 -1509 )">
    <path d="M 215 1512  A 2 2 0 0 1 217 1510 L 271 1510  A 2 2 0 0 1 273 1512 L 273 1530  A 2 2 0 0 1 271 1532 L 217 1532  A 2 2 0 0 1 215 1530 L 215 1512  Z " fill-rule="nonzero" fill="#ffffff" stroke="none" />
    <path d="M 214.5 1512  A 2.5 2.5 0 0 1 217 1509.5 L 271 1509.5  A 2.5 2.5 0 0 1 273.5 1512 L 273.5 1530  A 2.5 2.5 0 0 1 271 1532.5 L 217 1532.5  A 2.5 2.5 0 0 1 214.5 1530 L 214.5 1512  Z " stroke-width="1" stroke="#797979" fill="none" stroke-opacity="0.298039215686275" />
  </g>
</svg>