<?xml version="1.0" encoding="utf-8"?>
<svg version="1.1" xmlns:xlink="http://www.w3.org/1999/xlink" width="287px" height="123px" xmlns="http://www.w3.org/2000/svg">
  <g transform="matrix(1 0 0 1 -1249 -74 )">
    <path d="M 1250 81  A 6 6 0 0 1 1256 75 L 1529 75  A 6 6 0 0 1 1535 81 L 1535 190  A 6 6 0 0 1 1529 196 L 1256 196  A 6 6 0 0 1 1250 190 L 1250 81  Z " fill-rule="nonzero" fill="#ffffff" stroke="none" />
    <path d="M 1249.5 81  A 6.5 6.5 0 0 1 1256 74.5 L 1529 74.5  A 6.5 6.5 0 0 1 1535.5 81 L 1535.5 190  A 6.5 6.5 0 0 1 1529 196.5 L 1256 196.5  A 6.5 6.5 0 0 1 1249.5 190 L 1249.5 81  Z " stroke-width="1" stroke-dasharray="9,4" stroke="#797979" fill="none" stroke-dashoffset="0.5" />
  </g>
</svg>