<?xml version="1.0" encoding="utf-8"?>
<svg version="1.1" xmlns:xlink="http://www.w3.org/1999/xlink" width="60px" height="24px" xmlns="http://www.w3.org/2000/svg">
  <g transform="matrix(1 0 0 1 -214 -893 )">
    <path d="M 215 896  A 2 2 0 0 1 217 894 L 271 894  A 2 2 0 0 1 273 896 L 273 914  A 2 2 0 0 1 271 916 L 217 916  A 2 2 0 0 1 215 914 L 215 896  Z " fill-rule="nonzero" fill="#ffffff" stroke="none" />
    <path d="M 214.5 896  A 2.5 2.5 0 0 1 217 893.5 L 271 893.5  A 2.5 2.5 0 0 1 273.5 896 L 273.5 914  A 2.5 2.5 0 0 1 271 916.5 L 217 916.5  A 2.5 2.5 0 0 1 214.5 914 L 214.5 896  Z " stroke-width="1" stroke="#797979" fill="none" stroke-opacity="0.43921568627451" />
  </g>
</svg>