<?xml version="1.0" encoding="utf-8"?>
<svg version="1.1" xmlns:xlink="http://www.w3.org/1999/xlink" width="188px" height="92px" xmlns="http://www.w3.org/2000/svg">
  <g transform="matrix(1 0 0 1 -522 -316 )">
    <path d="M 523 319  A 2 2 0 0 1 525 317 L 707 317  A 2 2 0 0 1 709 319 L 709 405  A 2 2 0 0 1 707 407 L 525 407  A 2 2 0 0 1 523 405 L 523 319  Z " fill-rule="nonzero" fill="#ffffff" stroke="none" />
    <path d="M 522.5 319  A 2.5 2.5 0 0 1 525 316.5 L 707 316.5  A 2.5 2.5 0 0 1 709.5 319 L 709.5 405  A 2.5 2.5 0 0 1 707 407.5 L 525 407.5  A 2.5 2.5 0 0 1 522.5 405 L 522.5 319  Z " stroke-width="1" stroke="#cccccc" fill="none" stroke-opacity="0.388235294117647" />
  </g>
</svg>