<?xml version="1.0" encoding="utf-8"?>
<svg version="1.1" xmlns:xlink="http://www.w3.org/1999/xlink" width="326px" height="92px" xmlns="http://www.w3.org/2000/svg">
  <g transform="matrix(1 0 0 1 -190 -316 )">
    <path d="M 191 319  A 2 2 0 0 1 193 317 L 513 317  A 2 2 0 0 1 515 319 L 515 405  A 2 2 0 0 1 513 407 L 193 407  A 2 2 0 0 1 191 405 L 191 319  Z " fill-rule="nonzero" fill="#ffffff" stroke="none" />
    <path d="M 190.5 319  A 2.5 2.5 0 0 1 193 316.5 L 513 316.5  A 2.5 2.5 0 0 1 515.5 319 L 515.5 405  A 2.5 2.5 0 0 1 513 407.5 L 193 407.5  A 2.5 2.5 0 0 1 190.5 405 L 190.5 319  Z " stroke-width="1" stroke="#cccccc" fill="none" stroke-opacity="0.388235294117647" />
  </g>
</svg>