<?xml version="1.0" encoding="utf-8"?>
<svg version="1.1" xmlns:xlink="http://www.w3.org/1999/xlink" width="12px" height="12px" viewBox="2747 878  12 12" xmlns="http://www.w3.org/2000/svg">
  <path d="M 2753 878  C 2756.36 878  2759 880.64  2759 884  C 2759 887.36  2756.36 890  2753 890  C 2749.64 890  2747 887.36  2747 884  C 2747 880.64  2749.64 878  2753 878  Z " fill-rule="nonzero" fill="#ffffff" stroke="none" />
  <path d="M 2753 878.5  C 2756.08 878.5  2758.5 880.92  2758.5 884  C 2758.5 887.08  2756.08 889.5  2753 889.5  C 2749.92 889.5  2747.5 887.08  2747.5 884  C 2747.5 880.92  2749.92 878.5  2753 878.5  Z " stroke-width="1" stroke="#797979" fill="none" />
  <path d="M 2753 887  C 2751.32 887  2750 885.68  2750 884  C 2750 882.32  2751.32 881  2753 881  C 2754.68 881  2756 882.32  2756 884  C 2756 885.68  2754.68 887  2753 887  " fill-rule="nonzero" fill="#797979" stroke="none" />
</svg>