<?xml version="1.0" encoding="utf-8"?>
<svg version="1.1" xmlns:xlink="http://www.w3.org/1999/xlink" width="12px" height="12px" viewBox="2747 842  12 12" xmlns="http://www.w3.org/2000/svg">
  <path d="M 2753 842  C 2756.36 842  2759 844.64  2759 848  C 2759 851.36  2756.36 854  2753 854  C 2749.64 854  2747 851.36  2747 848  C 2747 844.64  2749.64 842  2753 842  Z " fill-rule="nonzero" fill="#ffffff" stroke="none" />
  <path d="M 2753 842.5  C 2756.08 842.5  2758.5 844.92  2758.5 848  C 2758.5 851.08  2756.08 853.5  2753 853.5  C 2749.92 853.5  2747.5 851.08  2747.5 848  C 2747.5 844.92  2749.92 842.5  2753 842.5  Z " stroke-width="1" stroke="#797979" fill="none" />
  <path d="M 2753 851  C 2751.32 851  2750 849.68  2750 848  C 2750 846.32  2751.32 845  2753 845  C 2754.68 845  2756 846.32  2756 848  C 2756 849.68  2754.68 851  2753 851  " fill-rule="nonzero" fill="#797979" stroke="none" />
</svg>