<?xml version="1.0" encoding="utf-8"?>
<svg version="1.1" xmlns:xlink="http://www.w3.org/1999/xlink" width="12px" height="12px" viewBox="2747 811  12 12" xmlns="http://www.w3.org/2000/svg">
  <path d="M 2753 811  C 2756.36 811  2759 813.64  2759 817  C 2759 820.36  2756.36 823  2753 823  C 2749.64 823  2747 820.36  2747 817  C 2747 813.64  2749.64 811  2753 811  Z " fill-rule="nonzero" fill="#ffffff" stroke="none" />
  <path d="M 2753 811.5  C 2756.08 811.5  2758.5 813.92  2758.5 817  C 2758.5 820.08  2756.08 822.5  2753 822.5  C 2749.92 822.5  2747.5 820.08  2747.5 817  C 2747.5 813.92  2749.92 811.5  2753 811.5  Z " stroke-width="1" stroke="#797979" fill="none" />
  <path d="M 2753 820  C 2751.32 820  2750 818.68  2750 817  C 2750 815.32  2751.32 814  2753 814  C 2754.68 814  2756 815.32  2756 817  C 2756 818.68  2754.68 820  2753 820  " fill-rule="nonzero" fill="#797979" stroke="none" />
</svg>