<?xml version="1.0" encoding="utf-8"?>
<svg version="1.1" xmlns:xlink="http://www.w3.org/1999/xlink" width="14px" height="14px" xmlns="http://www.w3.org/2000/svg">
  <g transform="matrix(1 0 0 1 -1927 -363 )">
    <path d="M 1934 363  C 1937.92 363  1941 366.08  1941 370  C 1941 373.92  1937.92 377  1934 377  C 1930.08 377  1927 373.92  1927 370  C 1927 366.08  1930.08 363  1934 363  Z " fill-rule="nonzero" fill="#ffffff" stroke="none" fill-opacity="0" />
    <path d="M 1934 363.5  C 1937.64 363.5  1940.5 366.36  1940.5 370  C 1940.5 373.64  1937.64 376.5  1934 376.5  C 1930.36 376.5  1927.5 373.64  1927.5 370  C 1927.5 366.36  1930.36 363.5  1934 363.5  Z " stroke-width="1" stroke="#1890ff" fill="none" />
  </g>
</svg>