<?xml version="1.0" encoding="utf-8"?>
<svg version="1.1" xmlns:xlink="http://www.w3.org/1999/xlink" width="60px" height="24px" xmlns="http://www.w3.org/2000/svg">
  <g transform="matrix(1 0 0 1 -265 -220 )">
    <path d="M 266 223  A 2 2 0 0 1 268 221 L 322 221  A 2 2 0 0 1 324 223 L 324 241  A 2 2 0 0 1 322 243 L 268 243  A 2 2 0 0 1 266 241 L 266 223  Z " fill-rule="nonzero" fill="#ffffff" stroke="none" />
    <path d="M 265.5 223  A 2.5 2.5 0 0 1 268 220.5 L 322 220.5  A 2.5 2.5 0 0 1 324.5 223 L 324.5 241  A 2.5 2.5 0 0 1 322 243.5 L 268 243.5  A 2.5 2.5 0 0 1 265.5 241 L 265.5 223  Z " stroke-width="1" stroke="#797979" fill="none" stroke-opacity="0.529411764705882" />
  </g>
</svg>